<svg xmlns="http://www.w3.org/2000/svg" viewBox="0 0 520 360" role="img" aria-labelledby="title desc">
  <title id="title">アパート・マンション管理</title>
  <desc id="desc">集合住宅の管理を表すイラスト</desc>
  <rect width="520" height="360" rx="18" fill="#eaf3fb"/>
  <rect x="72" y="92" width="152" height="202" rx="10" fill="#ffffff" stroke="#b8d1e8" stroke-width="4"/>
  <rect x="104" y="122" width="30" height="28" rx="4" fill="#1e65a8"/>
  <rect x="158" y="122" width="30" height="28" rx="4" fill="#79b3df"/>
  <rect x="104" y="170" width="30" height="28" rx="4" fill="#79b3df"/>
  <rect x="158" y="170" width="30" height="28" rx="4" fill="#1e65a8"/>
  <rect x="126" y="226" width="46" height="68" rx="5" fill="#174b83"/>
  <rect x="258" y="64" width="176" height="230" rx="12" fill="#ffffff" stroke="#1e65a8" stroke-width="6"/>
  <rect x="290" y="98" width="34" height="30" rx="4" fill="#79b3df"/>
  <rect x="352" y="98" width="34" height="30" rx="4" fill="#d7e8f7"/>
  <rect x="290" y="150" width="34" height="30" rx="4" fill="#d7e8f7"/>
  <rect x="352" y="150" width="34" height="30" rx="4" fill="#79b3df"/>
  <rect x="318" y="220" width="54" height="74" rx="6" fill="#174b83"/>
  <path d="M226 268c22-36 60-36 82 0" fill="none" stroke="#f47d32" stroke-width="12" stroke-linecap="round"/>
  <path d="M60 310h400" stroke="#b8d1e8" stroke-width="8" stroke-linecap="round"/>
</svg>
